<?xml version="1.0" encoding="UTF-8"?><svg xmlns="http://www.w3.org/2000/svg" xmlns:xlink="http://www.w3.org/1999/xlink" viewBox="0 0 1921.12 1080"><defs><style>.ca{fill:none;}.cb{clip-path:url(#v);}.cc{clip-path:url(#u);}.cd{clip-path:url(#t);}.ce{clip-path:url(#y);}.cf{clip-path:url(#x);}.cg{clip-path:url(#w);}.ch{clip-path:url(#f);}.ci{clip-path:url(#n);}.cj{clip-path:url(#m);}.ck{clip-path:url(#l);}.cl{clip-path:url(#k);}.cm{clip-path:url(#j);}.cn{clip-path:url(#i);}.co{clip-path:url(#h);}.cp{clip-path:url(#g);}.cq{clip-path:url(#s);}.cr{clip-path:url(#r);}.cs{clip-path:url(#q);}.ct{clip-path:url(#p);}.cu{clip-path:url(#o);}.cv{clip-path:url(#by);}.cw{clip-path:url(#br);}.cx{clip-path:url(#bq);}.cy{clip-path:url(#bx);}.d`{clip-path:url(#bt);}.da{clip-path:url(#bj);}.db{clip-path:url(#bi);}.dc{clip-path:url(#bp);}.dd{clip-path:url(#bw);}.de{clip-path:url(#bv);}.df{clip-path:url(#bu);}.dg{clip-path:url(#bl);}.dh{clip-path:url(#bs);}.di{clip-path:url(#bb);}.dj{clip-path:url(#ba);}.dk{clip-path:url(#bh);}.dl{clip-path:url(#bo);}.dm{clip-path:url(#bn);}.dn{clip-path:url(#bm);}.do{clip-path:url(#bd);}.dp{clip-path:url(#bk);}.dq{clip-path:url(#b`);}.dr{clip-path:url(#c`);}.ds{clip-path:url(#bg);}.dt{clip-path:url(#bf);}.du{clip-path:url(#be);}.dv{clip-path:url(#bc);}.dw{clip-path:url(#ah);}.dx{clip-path:url(#ag);}.dy{clip-path:url(#ab);}.e`{clip-path:url(#aa);}.ea{clip-path:url(#as);}.eb{clip-path:url(#ak);}.ec{clip-path:url(#av);}.ed{clip-path:url(#au);}.ee{clip-path:url(#ay);}.ef{clip-path:url(#at);}.eg{clip-path:url(#ac);}.eh{clip-path:url(#an);}.ei{clip-path:url(#am);}.ej{clip-path:url(#ax);}.ek{clip-path:url(#aw);}.el{clip-path:url(#ar);}.em{clip-path:url(#aq);}.en{clip-path:url(#al);}.eo{clip-path:url(#af);}.ep{clip-path:url(#ae);}.eq{clip-path:url(#ap);}.er{clip-path:url(#ao);}.es{clip-path:url(#aj);}.et{clip-path:url(#ai);}.eu{clip-path:url(#ad);}.ev{clip-path:url(#a`);}</style><clipPath id="f"><rect class="ca" width="1921.12" height="1080"/></clipPath><clipPath id="g"><rect class="ca" x="1862.02" y="-22.89" width="186.19" height="190.96"/></clipPath><clipPath id="h"><rect class="ca" x="1862.02" y="168.07" width="186.19" height="190.96"/></clipPath><clipPath id="i"><rect class="ca" x="1862.02" y="359.04" width="186.19" height="190.96"/></clipPath><clipPath id="j"><rect class="ca" x="1862.02" y="550" width="186.19" height="190.96"/></clipPath><clipPath id="k"><rect class="ca" x="1862.02" y="740.96" width="186.19" height="190.96"/></clipPath><clipPath id="l"><rect class="ca" x="1862.02" y="931.93" width="186.19" height="190.96"/></clipPath><clipPath id="m"><rect class="ca" x="1675.83" y="-22.89" width="186.19" height="190.96"/></clipPath><clipPath id="n"><rect class="ca" x="1675.83" y="168.07" width="186.19" height="190.96"/></clipPath><clipPath id="o"><rect class="ca" x="1675.83" y="359.04" width="186.19" height="190.96"/></clipPath><clipPath id="p"><rect class="ca" x="1675.83" y="550" width="186.19" height="190.96"/></clipPath><clipPath id="q"><rect class="ca" x="1675.83" y="740.96" width="186.19" height="190.96"/></clipPath><clipPath id="r"><rect class="ca" x="1675.83" y="931.93" width="186.19" height="190.96"/></clipPath><clipPath id="s"><rect class="ca" x="1489.64" y="-22.89" width="186.19" height="190.96"/></clipPath><clipPath id="t"><rect class="ca" x="1489.64" y="168.07" width="186.19" height="190.96"/></clipPath><clipPath id="u"><rect class="ca" x="1489.64" y="359.04" width="186.19" height="190.96"/></clipPath><clipPath id="v"><rect class="ca" x="1489.64" y="550" width="186.19" height="190.96"/></clipPath><clipPath id="w"><rect class="ca" x="1489.64" y="740.96" width="186.19" height="190.96"/></clipPath><clipPath id="x"><rect class="ca" x="1489.64" y="931.93" width="186.19" height="190.96"/></clipPath><clipPath id="y"><rect class="ca" x="1303.45" y="-22.89" width="186.19" height="190.96"/></clipPath><clipPath id="a`"><rect class="ca" x="1303.45" y="168.07" width="186.19" height="190.96"/></clipPath><clipPath id="aa"><rect class="ca" x="1303.45" y="359.04" width="186.19" height="190.96"/></clipPath><clipPath id="ab"><rect class="ca" x="1303.45" y="550" width="186.19" height="190.96"/></clipPath><clipPath id="ac"><rect class="ca" x="1303.45" y="740.96" width="186.19" height="190.96"/></clipPath><clipPath id="ad"><rect class="ca" x="1303.45" y="931.93" width="186.19" height="190.96"/></clipPath><clipPath id="ae"><rect class="ca" x="1117.26" y="-22.89" width="186.19" height="190.96"/></clipPath><clipPath id="af"><rect class="ca" x="1117.26" y="168.07" width="186.19" height="190.96"/></clipPath><clipPath id="ag"><rect class="ca" x="1117.26" y="359.04" width="186.19" height="190.96"/></clipPath><clipPath id="ah"><rect class="ca" x="1117.26" y="550" width="186.19" height="190.96"/></clipPath><clipPath id="ai"><rect class="ca" x="1117.26" y="740.96" width="186.19" height="190.96"/></clipPath><clipPath id="aj"><rect class="ca" x="1117.26" y="931.93" width="186.19" height="190.96"/></clipPath><clipPath id="ak"><rect class="ca" x="931.07" y="-22.89" width="186.19" height="190.96"/></clipPath><clipPath id="al"><rect class="ca" x="931.07" y="168.07" width="186.19" height="190.96"/></clipPath><clipPath id="am"><rect class="ca" x="931.07" y="359.04" width="186.19" height="190.96"/></clipPath><clipPath id="an"><rect class="ca" x="931.07" y="550" width="186.19" height="190.96"/></clipPath><clipPath id="ao"><rect class="ca" x="931.07" y="740.96" width="186.19" height="190.96"/></clipPath><clipPath id="ap"><rect class="ca" x="931.07" y="931.93" width="186.19" height="190.96"/></clipPath><clipPath id="aq"><rect class="ca" x="744.88" y="-22.89" width="186.19" height="190.96"/></clipPath><clipPath id="ar"><rect class="ca" x="744.88" y="168.07" width="186.19" height="190.96"/></clipPath><clipPath id="as"><rect class="ca" x="744.88" y="359.04" width="186.19" height="190.96"/></clipPath><clipPath id="at"><rect class="ca" x="744.88" y="550" width="186.19" height="190.96"/></clipPath><clipPath id="au"><rect class="ca" x="744.88" y="740.96" width="186.19" height="190.96"/></clipPath><clipPath id="av"><rect class="ca" x="744.88" y="931.93" width="186.19" height="190.96"/></clipPath><clipPath id="aw"><rect class="ca" x="558.69" y="-22.89" width="186.19" height="190.96"/></clipPath><clipPath id="ax"><rect class="ca" x="558.69" y="168.07" width="186.19" height="190.96"/></clipPath><clipPath id="ay"><rect class="ca" x="558.69" y="359.04" width="186.19" height="190.96"/></clipPath><clipPath id="b`"><rect class="ca" x="558.69" y="550" width="186.19" height="190.96"/></clipPath><clipPath id="ba"><rect class="ca" x="558.69" y="740.96" width="186.19" height="190.96"/></clipPath><clipPath id="bb"><rect class="ca" x="558.69" y="931.93" width="186.19" height="190.96"/></clipPath><clipPath id="bc"><rect class="ca" x="372.5" y="-22.89" width="186.19" height="190.96"/></clipPath><clipPath id="bd"><rect class="ca" x="372.5" y="168.07" width="186.19" height="190.96"/></clipPath><clipPath id="be"><rect class="ca" x="372.5" y="359.04" width="186.19" height="190.96"/></clipPath><clipPath id="bf"><rect class="ca" x="372.5" y="550" width="186.19" height="190.96"/></clipPath><clipPath id="bg"><rect class="ca" x="372.5" y="740.96" width="186.19" height="190.96"/></clipPath><clipPath id="bh"><rect class="ca" x="372.5" y="931.93" width="186.19" height="190.96"/></clipPath><clipPath id="bi"><rect class="ca" x="186.31" y="-22.89" width="186.19" height="190.96"/></clipPath><clipPath id="bj"><rect class="ca" x="186.31" y="168.07" width="186.19" height="190.96"/></clipPath><clipPath id="bk"><rect class="ca" x="186.31" y="359.04" width="186.19" height="190.96"/></clipPath><clipPath id="bl"><rect class="ca" x="186.31" y="550" width="186.19" height="190.96"/></clipPath><clipPath id="bm"><rect class="ca" x="186.31" y="740.96" width="186.19" height="190.96"/></clipPath><clipPath id="bn"><rect class="ca" x="186.31" y="931.93" width="186.19" height="190.96"/></clipPath><clipPath id="bo"><rect class="ca" x=".12" y="-22.89" width="186.19" height="190.96"/></clipPath><clipPath id="bp"><rect class="ca" x=".12" y="168.07" width="186.19" height="190.96"/></clipPath><clipPath id="bq"><rect class="ca" x=".12" y="359.04" width="186.19" height="190.96"/></clipPath><clipPath id="br"><rect class="ca" x=".12" y="550" width="186.19" height="190.96"/></clipPath><clipPath id="bs"><rect class="ca" x=".12" y="740.96" width="186.19" height="190.96"/></clipPath><clipPath id="bt"><rect class="ca" x=".12" y="931.93" width="186.19" height="190.96"/></clipPath><clipPath id="bu"><rect class="ca" x="-186.07" y="-22.89" width="186.19" height="190.96"/></clipPath><clipPath id="bv"><rect class="ca" x="-186.07" y="168.07" width="186.19" height="190.96"/></clipPath><clipPath id="bw"><rect class="ca" x="-186.07" y="359.04" width="186.19" height="190.96"/></clipPath><clipPath id="bx"><rect class="ca" x="-186.07" y="550" width="186.19" height="190.96"/></clipPath><clipPath id="by"><rect class="ca" x="-186.07" y="740.96" width="186.19" height="190.96"/></clipPath><clipPath id="c`"><rect class="ca" x="-186.07" y="931.93" width="186.19" height="190.96"/></clipPath></defs><g id="a"/><g id="b"><g id="c"><g id="d"><g id="e"><g class="ch"><g><g class="cp"><path d="M1948.41,63.53c-19.77,19.78-51.83,19.78-71.6,.01-19.78-19.77-19.78-51.83-.01-71.6,10.01-10.02,23.76-15.38,37.92-14.79l-.82,20c-8.55-.39-16.86,2.85-22.89,8.92-11.97,11.95-11.99,31.35-.04,43.32s31.35,11.99,43.32,.04c5.56-5.55,8.77-13.02,8.98-20.87l20,.53c-.33,12.97-5.65,25.31-14.85,34.45Z"/></g><g class="co"><path d="M1948.41,254.49c-19.76,19.78-51.82,19.8-71.6,.03-19.78-19.76-19.8-51.82-.03-71.6,10.02-10.03,23.78-15.39,37.93-14.8l-.82,20c-8.54-.4-16.86,2.82-22.89,8.88-11.97,11.95-11.99,31.35-.04,43.32,11.95,11.97,31.35,11.99,43.32,.04,5.56-5.55,8.77-13.02,8.98-20.87l20,.54c-.32,12.97-5.64,25.32-14.85,34.47Z"/></g><g class="cn"><path d="M1948.41,445.45c-19.77,19.77-51.82,19.77-71.59,0-19.77-19.77-19.77-51.82,0-71.59,10.01-10.01,23.75-15.37,37.89-14.78l-.82,20c-8.55-.39-16.86,2.85-22.89,8.92-11.96,11.96-11.96,31.35,0,43.3s31.35,11.96,43.3,0c5.54-5.54,8.75-12.99,8.96-20.82l20,.53c-.33,12.96-5.65,25.3-14.85,34.44Z"/></g><g class="cm"><path d="M1948.41,636.42c-19.77,19.78-51.83,19.78-71.6,.01-19.78-19.77-19.78-51.83-.01-71.6,10.01-10.02,23.76-15.38,37.92-14.79l-.82,20c-8.55-.38-16.87,2.88-22.89,8.96-11.96,11.96-11.96,31.35,0,43.3s31.35,11.96,43.3,0c5.54-5.54,8.75-12.99,8.96-20.82l20,.53c-.34,12.95-5.66,25.28-14.85,34.41Z"/></g><g class="cl"><path d="M1948.41,827.38c-19.76,19.78-51.82,19.8-71.6,.03-19.78-19.76-19.8-51.82-.03-71.6,10.02-10.03,23.78-15.39,37.93-14.8l-.82,20c-8.56-.4-16.89,2.84-22.93,8.93-11.97,11.95-11.99,31.35-.04,43.32,11.95,11.97,31.35,11.99,43.32,.04,5.56-5.55,8.77-13.02,8.98-20.87l20,.54c-.33,12.95-5.63,25.28-14.81,34.42Z"/></g><g class="ck"><path d="M1948.41,1018.34c-19.77,19.77-51.82,19.77-71.59,0-19.77-19.77-19.77-51.82,0-71.59,10.01-10.01,23.75-15.37,37.89-14.78l-.82,20c-8.56-.4-16.9,2.85-22.93,8.94-11.96,11.96-11.96,31.35,0,43.3s31.35,11.96,43.3,0c5.54-5.54,8.75-12.99,8.96-20.82l20,.53c-.32,12.95-5.63,25.28-14.81,34.42Z"/></g><g class="cj"><g><rect x="1776.75" y="118.25" width="91.92" height="20" transform="translate(456.01 1341.03) rotate(-45.61)"/><path d="M1762.22,63.53c-19.77,19.78-51.83,19.78-71.6,.01-19.78-19.77-19.78-51.83-.01-71.6,10.01-10.02,23.76-15.38,37.92-14.79l-.82,20c-8.56-.39-16.89,2.85-22.93,8.94-11.99,11.93-12.03,31.33-.1,43.32,11.93,11.99,31.33,12.03,43.32,.1,5.59-5.56,8.82-13.07,9.01-20.96l20,.53c-.31,12.96-5.61,25.3-14.78,34.45Z"/></g></g><g class="ci"><g><rect x="1776.75" y="309.21" width="91.92" height="20" transform="translate(319.55 1398.41) rotate(-45.61)"/><path d="M1762.22,254.49c-19.76,19.78-51.82,19.8-71.6,.03-19.78-19.76-19.8-51.82-.03-71.6,10.02-10.03,23.78-15.39,37.93-14.8l-.82,20c-8.56-.4-16.89,2.84-22.93,8.93-11.99,11.93-12.03,31.33-.1,43.32,11.93,11.99,31.33,12.03,43.32,.1,5.59-5.56,8.82-13.07,9.01-20.96l20,.54c-.31,12.95-5.61,25.29-14.78,34.44Z"/></g></g><g class="cu"><g><rect x="1776.75" y="500.17" width="91.92" height="20" transform="translate(183.09 1455.79) rotate(-45.61)"/><path d="M1762.22,445.45c-19.77,19.77-51.82,19.77-71.59,0-19.77-19.77-19.77-51.82,0-71.59,10.01-10.01,23.75-15.37,37.89-14.78l-.82,20c-8.56-.4-16.9,2.85-22.93,8.94-11.98,11.94-12,31.33-.06,43.3,11.94,11.98,31.33,12,43.3,.06,5.57-5.56,8.79-13.04,8.99-20.91l20,.53c-.31,12.95-5.61,25.29-14.78,34.44Z"/></g></g><g class="ct"><g><rect x="1776.76" y="691.14" width="91.92" height="20" transform="translate(46.63 1513.17) rotate(-45.61)"/><path d="M1762.22,636.42c-19.77,19.78-51.83,19.78-71.6,.01-19.78-19.77-19.78-51.83-.01-71.6,10.01-10.02,23.76-15.38,37.92-14.79l-.82,20c-8.56-.39-16.89,2.85-22.93,8.94-11.98,11.94-12,31.33-.06,43.3,11.94,11.98,31.33,12,43.3,.06,5.57-5.56,8.79-13.04,8.99-20.91l20,.53c-.31,12.96-5.61,25.3-14.78,34.45Z"/></g></g><g class="cs"><g><rect x="1776.76" y="882.1" width="91.92" height="20" transform="translate(-89.83 1570.54) rotate(-45.61)"/><path d="M1762.22,827.38c-19.76,19.78-51.82,19.8-71.6,.03-19.78-19.76-19.8-51.82-.03-71.6,10.02-10.03,23.78-15.39,37.93-14.8l-.82,20c-8.56-.4-16.89,2.84-22.93,8.93-11.99,11.93-12.03,31.33-.1,43.32,11.93,11.99,31.33,12.03,43.32,.1,5.59-5.56,8.82-13.07,9.01-20.96l20,.54c-.31,12.95-5.61,25.29-14.78,34.44Z"/></g></g><g class="cr"><g><rect x="1776.76" y="1073.06" width="91.92" height="20" transform="translate(-226.3 1627.92) rotate(-45.61)"/><path d="M1762.22,1018.34c-19.77,19.77-51.82,19.77-71.59,0-19.77-19.77-19.77-51.82,0-71.59,10.01-10.01,23.75-15.37,37.89-14.78l-.82,20c-8.56-.4-16.9,2.85-22.93,8.94-11.98,11.94-12,31.33-.06,43.3,11.94,11.98,31.33,12,43.3,.06,5.57-5.56,8.79-13.04,8.99-20.91l20,.53c-.31,12.95-5.61,25.29-14.78,34.44Z"/></g></g><g class="cq"><g><rect x="1590.57" y="118.25" width="91.92" height="20" transform="translate(400.07 1207.99) rotate(-45.61)"/><path d="M1576,63.53c-19.77,19.78-51.83,19.78-71.6,.01-19.78-19.77-19.78-51.83-.01-71.6,10.01-10.02,23.76-15.38,37.92-14.79l-.82,20c-8.56-.39-16.89,2.85-22.93,8.94-11.97,11.95-11.99,31.35-.04,43.32s31.35,11.99,43.32,.04c5.56-5.55,8.77-13.02,8.98-20.87l20,.53c-.33,12.95-5.63,25.29-14.81,34.43Z"/></g></g><g class="cd"><g><rect x="1590.56" y="309.21" width="91.92" height="20" transform="translate(263.61 1265.36) rotate(-45.61)"/><path d="M1576,254.49c-19.76,19.78-51.82,19.8-71.6,.03-19.78-19.76-19.8-51.82-.03-71.6,10.02-10.03,23.78-15.39,37.93-14.8l-.82,20c-8.56-.4-16.89,2.84-22.93,8.93-11.97,11.95-11.99,31.35-.04,43.32,11.95,11.97,31.35,11.99,43.32,.04,5.56-5.55,8.77-13.02,8.98-20.87l20,.54c-.33,12.95-5.63,25.28-14.81,34.42Z"/></g></g><g class="cc"><g><rect x="1590.56" y="500.17" width="91.92" height="20" transform="translate(127.14 1322.74) rotate(-45.61)"/><path d="M1576,445.45c-19.77,19.77-51.82,19.77-71.59,0-19.77-19.77-19.77-51.82,0-71.59,10.01-10.01,23.75-15.37,37.89-14.78l-.82,20c-8.56-.4-16.9,2.85-22.93,8.94-11.96,11.96-11.96,31.35,0,43.3s31.35,11.96,43.3,0c5.54-5.54,8.75-12.99,8.96-20.82l20,.53c-.32,12.95-5.63,25.28-14.81,34.42Z"/></g></g><g class="cb"><g><rect x="1590.57" y="691.14" width="91.92" height="20" transform="translate(-9.31 1380.12) rotate(-45.61)"/><path d="M1576,636.42c-19.77,19.78-51.83,19.78-71.6,.01-19.78-19.77-19.78-51.83-.01-71.6,10.01-10.02,23.76-15.38,37.92-14.79l-.82,20c-8.56-.39-16.89,2.85-22.93,8.94-11.96,11.96-11.96,31.35,0,43.3s31.35,11.96,43.3,0c5.54-5.54,8.75-12.99,8.96-20.82l20,.53c-.33,12.95-5.63,25.29-14.81,34.43Z"/></g></g><g class="cg"><g><rect x="1590.57" y="882.1" width="91.92" height="20" transform="translate(-145.78 1437.5) rotate(-45.61)"/><path d="M1576,827.38c-19.76,19.78-51.82,19.8-71.6,.03-19.78-19.76-19.8-51.82-.03-71.6,10.02-10.03,23.78-15.39,37.93-14.8l-.82,20c-8.56-.4-16.89,2.84-22.93,8.93-11.97,11.95-11.99,31.35-.04,43.32,11.95,11.97,31.35,11.99,43.32,.04,5.56-5.55,8.77-13.02,8.98-20.87l20,.54c-.33,12.95-5.63,25.28-14.81,34.42Z"/></g></g><g class="cf"><g><rect x="1590.56" y="1073.06" width="91.92" height="20" transform="translate(-282.24 1494.87) rotate(-45.61)"/><path d="M1576,1018.34c-19.77,19.77-51.82,19.77-71.59,0-19.77-19.77-19.77-51.82,0-71.59,10.01-10.01,23.75-15.37,37.89-14.78l-.82,20c-8.56-.4-16.9,2.85-22.93,8.94-11.96,11.96-11.96,31.35,0,43.3s31.35,11.96,43.3,0c5.54-5.54,8.75-12.99,8.96-20.82l20,.53c-.32,12.95-5.63,25.28-14.81,34.42Z"/></g></g><g class="ce"><g><rect x="1404.38" y="118.25" width="91.92" height="20" transform="translate(344.13 1074.94) rotate(-45.61)"/><path d="M1389.84,63.53c-19.77,19.78-51.83,19.78-71.6,.01-19.78-19.77-19.78-51.83-.01-71.6,10.01-10.02,23.76-15.38,37.92-14.79l-.82,20c-8.56-.39-16.89,2.85-22.93,8.94-11.97,11.95-11.99,31.35-.04,43.32s31.35,11.99,43.32,.04c5.56-5.55,8.77-13.02,8.98-20.87l20,.53c-.33,12.95-5.63,25.29-14.81,34.43Z"/></g></g><g class="ev"><g><rect x="1404.38" y="309.21" width="91.92" height="20" transform="translate(207.66 1132.31) rotate(-45.61)"/><path d="M1389.84,254.49c-19.76,19.78-51.82,19.8-71.6,.03-19.78-19.76-19.8-51.82-.03-71.6,10.02-10.03,23.78-15.39,37.93-14.8l-.82,20c-8.56-.4-16.89,2.84-22.93,8.93-11.97,11.95-11.99,31.35-.04,43.32,11.95,11.97,31.35,11.99,43.32,.04,5.56-5.55,8.77-13.02,8.98-20.87l20,.54c-.33,12.95-5.63,25.28-14.81,34.42Z"/></g></g><g class="e`"><g><rect x="1404.38" y="500.18" width="91.92" height="20" transform="translate(71.2 1189.69) rotate(-45.61)"/><path d="M1389.84,445.45c-19.77,19.77-51.82,19.77-71.59,0-19.77-19.77-19.77-51.82,0-71.59,10.01-10.01,23.75-15.37,37.89-14.78l-.82,20c-8.56-.4-16.9,2.85-22.93,8.94-11.96,11.96-11.96,31.35,0,43.3s31.35,11.96,43.3,0c5.54-5.54,8.75-12.99,8.96-20.82l20,.53c-.32,12.95-5.63,25.28-14.81,34.42Z"/></g></g><g class="dy"><g><rect x="1404.37" y="691.14" width="91.92" height="20" transform="translate(-65.26 1247.06) rotate(-45.61)"/><path d="M1389.84,636.42c-19.77,19.78-51.83,19.78-71.6,.01-19.78-19.77-19.78-51.83-.01-71.6,10.01-10.02,23.76-15.38,37.92-14.79l-.82,20c-8.56-.39-16.89,2.85-22.93,8.94-11.96,11.96-11.96,31.35,0,43.3s31.35,11.96,43.3,0c5.54-5.54,8.75-12.99,8.96-20.82l20,.53c-.33,12.95-5.63,25.29-14.81,34.43Z"/></g></g><g class="eg"><g><rect x="1404.37" y="882.1" width="91.92" height="20" transform="translate(-201.72 1304.44) rotate(-45.61)"/><path d="M1389.84,827.38c-19.76,19.78-51.82,19.8-71.6,.03-19.78-19.76-19.8-51.82-.03-71.6,10.02-10.03,23.78-15.39,37.93-14.8l-.82,20c-8.56-.4-16.89,2.84-22.93,8.93-11.97,11.95-11.99,31.35-.04,43.32,11.95,11.97,31.35,11.99,43.32,.04,5.56-5.55,8.77-13.02,8.98-20.87l20,.54c-.33,12.95-5.63,25.28-14.81,34.42Z"/></g></g><g class="eu"><g><rect x="1404.37" y="1073.06" width="91.92" height="20" transform="translate(-338.18 1361.82) rotate(-45.61)"/><path d="M1389.84,1018.34c-19.77,19.77-51.82,19.77-71.59,0-19.77-19.77-19.77-51.82,0-71.59,10.01-10.01,23.75-15.37,37.89-14.78l-.82,20c-8.56-.4-16.9,2.85-22.93,8.94-11.96,11.96-11.96,31.35,0,43.3s31.35,11.96,43.3,0c5.54-5.54,8.75-12.99,8.96-20.82l20,.53c-.32,12.95-5.63,25.28-14.81,34.42Z"/></g></g><g class="ep"><g><rect x="1218.19" y="118.25" width="91.92" height="20" transform="translate(288.18 941.89) rotate(-45.61)"/><path d="M1203.65,63.53c-19.77,19.77-51.83,19.78-71.6,0-19.77-19.77-19.78-51.83,0-71.6,10.02-10.03,23.8-15.39,37.96-14.79l-.82,20c-8.56-.39-16.89,2.85-22.93,8.94-11.97,11.95-11.99,31.35-.04,43.32s31.35,11.99,43.32,.04c5.56-5.55,8.77-13.02,8.98-20.87l20,.53c-.34,12.96-5.66,25.29-14.86,34.43Z"/></g></g><g class="eo"><g><rect x="1218.18" y="309.21" width="91.92" height="20" transform="translate(151.72 999.26) rotate(-45.61)"/><path d="M1203.65,254.49c-19.76,19.78-51.82,19.8-71.6,.03-19.78-19.76-19.8-51.82-.03-71.6,10.02-10.03,23.78-15.39,37.93-14.8l-.82,20c-8.56-.42-16.89,2.81-22.93,8.88-11.97,11.95-11.99,31.35-.04,43.32,11.95,11.97,31.35,11.99,43.32,.04,5.56-5.55,8.77-13.02,8.98-20.87l20,.54c-.31,12.97-5.62,25.32-14.81,34.47Z"/></g></g><g class="dx"><g><rect x="1218.18" y="500.17" width="91.92" height="20" transform="translate(15.26 1056.63) rotate(-45.61)"/><path d="M1203.65,445.45c-19.77,19.77-51.82,19.77-71.59,0-19.77-19.77-19.77-51.82,0-71.59,10.01-10.01,23.75-15.37,37.89-14.78l-.82,20c-8.56-.4-16.89,2.84-22.93,8.92-11.96,11.96-11.96,31.35,0,43.3s31.35,11.96,43.3,0c5.54-5.54,8.75-12.99,8.96-20.82l20,.53c-.32,12.96-5.62,25.29-14.81,34.44Z"/></g></g><g class="dw"><g><rect x="1218.19" y="691.14" width="91.92" height="20" transform="translate(-121.2 1114.02) rotate(-45.61)"/><path d="M1203.65,636.42c-19.79,19.75-51.85,19.72-71.6-.07-19.75-19.79-19.72-51.85,.07-71.6,10.01-9.99,23.75-15.34,37.88-14.75l-.82,20c-8.59-.39-16.94,2.88-22.98,9-11.96,11.96-11.96,31.35,0,43.3s31.35,11.96,43.3,0c5.54-5.54,8.75-12.99,8.96-20.82l20,.53c-.33,12.95-5.63,25.27-14.81,34.41Z"/></g></g><g class="et"><g><rect x="1218.18" y="882.1" width="91.92" height="20" transform="translate(-257.66 1171.39) rotate(-45.61)"/><path d="M1203.65,827.38c-19.77,19.77-51.83,19.78-71.6,0-19.77-19.77-19.78-51.83,0-71.6,10.02-10.03,23.8-15.39,37.96-14.79l-.82,20c-8.56-.4-16.89,2.84-22.93,8.93-11.97,11.95-11.99,31.35-.04,43.32,11.95,11.97,31.35,11.99,43.32,.04,5.56-5.55,8.77-13.02,8.98-20.87l20,.54c-.34,12.96-5.66,25.29-14.86,34.43Z"/></g></g><g class="es"><g><rect x="1218.18" y="1073.06" width="91.92" height="20" transform="translate(-394.13 1228.77) rotate(-45.61)"/><path d="M1203.65,1018.34c-19.75,19.78-51.8,19.81-71.59,.05-19.78-19.75-19.81-51.8-.05-71.59,10.03-10.04,23.81-15.42,37.99-14.81l-.82,20c-8.56-.4-16.9,2.85-22.93,8.94-11.96,11.96-11.96,31.35,0,43.3s31.35,11.96,43.3,0c5.54-5.54,8.75-12.99,8.96-20.82l20,.53c-.35,12.95-5.67,25.26-14.86,34.39Z"/></g></g><g class="eb"><g><rect x="1031.99" y="118.26" width="91.92" height="20" transform="translate(232.23 808.83) rotate(-45.61)"/><path d="M1017.46,63.53c-19.77,19.78-51.83,19.78-71.6,.01s-19.78-51.83-.01-71.6c10.01-10.02,23.76-15.38,37.92-14.79l-.82,20c-8.56-.4-16.9,2.84-22.94,8.92-11.97,11.95-11.99,31.35-.04,43.32s31.35,11.99,43.32,.04c5.56-5.55,8.77-13.02,8.98-20.87l20,.53c-.32,12.96-5.62,25.3-14.8,34.45Z"/></g></g><g class="en"><g><rect x="1031.99" y="309.22" width="91.92" height="20" transform="translate(95.77 866.21) rotate(-45.61)"/><path d="M1017.46,254.49c-19.76,19.78-51.82,19.8-71.6,.03-19.78-19.76-19.8-51.82-.03-71.6,10.02-10.03,23.78-15.39,37.93-14.8l-.82,20c-8.56-.42-16.89,2.81-22.94,8.88-11.97,11.95-11.99,31.35-.04,43.32,11.95,11.97,31.35,11.99,43.32,.04,5.56-5.55,8.77-13.02,8.98-20.87l20,.54c-.31,12.97-5.61,25.31-14.8,34.47Z"/></g></g><g class="ei"><g><rect x="1031.99" y="500.17" width="91.92" height="20" transform="translate(-40.69 923.58) rotate(-45.61)"/><path d="M1017.46,445.45c-19.77,19.77-51.82,19.77-71.59,0-19.77-19.77-19.77-51.82,0-71.59,10.01-10.01,23.75-15.37,37.89-14.78l-.82,20c-8.56-.41-16.9,2.83-22.94,8.92-11.96,11.96-11.96,31.35,0,43.3s31.35,11.96,43.3,0c5.54-5.54,8.75-12.99,8.96-20.82l20,.53c-.32,12.96-5.62,25.29-14.8,34.44Z"/></g></g><g class="eh"><g><rect x="1031.99" y="691.14" width="91.92" height="20" transform="translate(-177.15 980.97) rotate(-45.61)"/><path d="M1017.46,636.42c-19.79,19.75-51.85,19.73-71.6-.06-19.75-19.79-19.73-51.85,.06-71.6,10-9.98,23.72-15.33,37.84-14.76l-.82,20c-8.58-.38-16.91,2.89-22.94,9-11.96,11.96-11.96,31.35,0,43.3s31.35,11.96,43.3,0c5.54-5.54,8.75-12.99,8.96-20.82l20,.53c-.33,12.95-5.63,25.27-14.8,34.41Z"/></g></g><g class="er"><g><rect x="1031.99" y="882.11" width="91.92" height="20" transform="translate(-313.61 1038.34) rotate(-45.61)"/><path d="M1017.46,827.38c-19.77,19.78-51.83,19.78-71.6,.01s-19.78-51.83-.01-71.6c10.01-10.02,23.76-15.38,37.92-14.79l-.82,20c-8.56-.41-16.9,2.83-22.94,8.92-11.97,11.95-11.99,31.35-.04,43.32,11.95,11.97,31.35,11.99,43.32,.04,5.56-5.55,8.77-13.02,8.98-20.87l20,.54c-.32,12.96-5.62,25.29-14.8,34.44Z"/></g></g><g class="eq"><g><rect x="1031.98" y="1073.07" width="91.92" height="20" transform="translate(-450.08 1095.71) rotate(-45.61)"/><path d="M1017.46,1018.34c-19.75,19.78-51.8,19.81-71.59,.06s-19.81-51.8-.06-71.59c10.02-10.03,23.78-15.41,37.95-14.81l-.82,20c-8.56-.41-16.89,2.82-22.94,8.89-11.96,11.96-11.96,31.35,0,43.3s31.35,11.96,43.3,0c5.54-5.54,8.75-12.99,8.96-20.82l20,.53c-.32,12.96-5.62,25.29-14.8,34.44Z"/></g></g><g class="em"><g><rect x="845.8" y="118.26" width="91.92" height="20" transform="translate(176.29 675.78) rotate(-45.61)"/><path d="M831.27,63.53c-19.77,19.78-51.83,19.78-71.6,.01s-19.78-51.83-.01-71.6c10.01-10.02,23.76-15.38,37.92-14.79l-.82,20c-8.56-.39-16.89,2.85-22.93,8.94-11.97,11.95-11.99,31.35-.04,43.32s31.35,11.99,43.32,.04c5.56-5.55,8.77-13.02,8.98-20.87l20,.53c-.33,12.95-5.63,25.29-14.81,34.43Z"/></g></g><g class="el"><g><rect x="845.8" y="309.22" width="91.92" height="20" transform="translate(39.83 733.16) rotate(-45.61)"/><path d="M831.27,254.49c-19.76,19.78-51.82,19.8-71.6,.03-19.78-19.76-19.8-51.82-.03-71.6,10.02-10.03,23.78-15.39,37.93-14.8l-.82,20c-8.56-.42-16.89,2.81-22.93,8.88-11.97,11.95-11.99,31.35-.04,43.32,11.95,11.97,31.35,11.99,43.32,.04,5.56-5.55,8.77-13.02,8.98-20.87l20,.54c-.31,12.97-5.62,25.32-14.81,34.47Z"/></g></g><g class="ea"><g><rect x="845.8" y="500.17" width="91.92" height="20" transform="translate(-96.63 790.53) rotate(-45.61)"/><path d="M831.27,445.45c-19.77,19.77-51.82,19.77-71.59,0-19.77-19.77-19.77-51.82,0-71.59,10.01-10.01,23.75-15.37,37.89-14.78l-.82,20c-8.56-.4-16.89,2.84-22.93,8.92-11.96,11.96-11.96,31.35,0,43.3s31.35,11.96,43.3,0c5.54-5.54,8.75-12.99,8.96-20.82l20,.53c-.32,12.96-5.62,25.29-14.81,34.44Z"/></g></g><g class="ef"><g><rect x="845.79" y="691.14" width="91.92" height="20" transform="translate(-233.1 847.91) rotate(-45.61)"/><path d="M831.27,636.42c-19.79,19.75-51.85,19.73-71.6-.06-19.75-19.79-19.73-51.85,.06-71.6,10-9.98,23.72-15.33,37.84-14.76l-.82,20c-8.57-.38-16.9,2.89-22.93,9-11.96,11.96-11.96,31.35,0,43.3s31.35,11.96,43.3,0c5.54-5.54,8.75-12.99,8.96-20.82l20,.53c-.33,12.95-5.63,25.27-14.81,34.41Z"/></g></g><g class="ed"><g><rect x="845.79" y="882.11" width="91.92" height="20" transform="translate(-369.56 905.29) rotate(-45.61)"/><path d="M831.27,827.38c-19.77,19.78-51.83,19.78-71.6,.01s-19.78-51.83-.01-71.6c10.01-10.02,23.76-15.38,37.92-14.79l-.82,20c-8.56-.4-16.89,2.84-22.93,8.93-11.97,11.95-11.99,31.35-.04,43.32,11.95,11.97,31.35,11.99,43.32,.04,5.56-5.55,8.77-13.02,8.98-20.87l20,.54c-.32,12.95-5.63,25.29-14.81,34.43Z"/></g></g><g class="ec"><g><rect x="845.79" y="1073.06" width="91.92" height="20" transform="translate(-506.01 962.66) rotate(-45.61)"/><path d="M831.27,1018.34c-19.75,19.78-51.8,19.81-71.59,.06s-19.81-51.8-.06-71.59c10.02-10.03,23.78-15.41,37.95-14.81l-.82,20c-8.56-.4-16.9,2.85-22.93,8.94-11.96,11.96-11.96,31.35,0,43.3s31.35,11.96,43.3,0c5.54-5.54,8.75-12.99,8.96-20.82l20,.53c-.33,12.94-5.64,25.26-14.81,34.39Z"/></g></g><g class="ek"><g><rect x="659.61" y="118.26" width="91.92" height="20" transform="translate(120.35 542.74) rotate(-45.61)"/><path d="M645.08,63.53c-19.77,19.78-51.83,19.78-71.6,.01s-19.78-51.83-.01-71.6c10.01-10.02,23.76-15.38,37.92-14.79l-.82,20c-8.56-.39-16.89,2.85-22.93,8.94-11.97,11.95-11.99,31.35-.04,43.32s31.35,11.99,43.32,.04c5.56-5.55,8.77-13.02,8.98-20.87l20,.53c-.33,12.95-5.63,25.29-14.81,34.43Z"/></g></g><g class="ej"><g><rect x="659.6" y="309.21" width="91.92" height="20" transform="translate(-16.11 600.1) rotate(-45.61)"/><path d="M645.08,254.49c-19.76,19.78-51.82,19.8-71.6,.03-19.78-19.76-19.8-51.82-.03-71.6,10.02-10.03,23.78-15.39,37.93-14.8l-.82,20c-8.56-.42-16.89,2.81-22.93,8.88-11.97,11.95-11.99,31.35-.04,43.32,11.95,11.97,31.35,11.99,43.32,.04,5.56-5.55,8.77-13.02,8.98-20.87l20,.54c-.31,12.97-5.62,25.32-14.81,34.47Z"/></g></g><g class="ee"><g><rect x="659.6" y="500.17" width="91.92" height="20" transform="translate(-152.57 657.48) rotate(-45.61)"/><path d="M645.08,445.45c-19.77,19.77-51.82,19.77-71.59,0-19.77-19.77-19.77-51.82,0-71.59,10.01-10.01,23.75-15.37,37.89-14.78l-.82,20c-8.56-.4-16.89,2.84-22.93,8.92-11.96,11.96-11.96,31.35,0,43.3s31.35,11.96,43.3,0c5.54-5.54,8.75-12.99,8.96-20.82l20,.53c-.32,12.96-5.62,25.29-14.81,34.44Z"/></g></g><g class="dq"><g><rect x="659.61" y="691.15" width="91.92" height="20" transform="translate(-289.04 714.86) rotate(-45.61)"/><path d="M645.08,636.42c-19.79,19.75-51.85,19.73-71.6-.06-19.75-19.79-19.73-51.85,.06-71.6,10-9.98,23.72-15.33,37.84-14.76l-.82,20c-8.57-.38-16.9,2.89-22.93,9-11.96,11.96-11.96,31.35,0,43.3s31.35,11.96,43.3,0c5.54-5.54,8.75-12.99,8.96-20.82l20,.53c-.33,12.95-5.63,25.27-14.81,34.41Z"/></g></g><g class="dj"><g><rect x="659.61" y="882.11" width="91.92" height="20" transform="translate(-425.5 772.24) rotate(-45.61)"/><path d="M645.08,827.38c-19.77,19.78-51.83,19.78-71.6,.01s-19.78-51.83-.01-71.6c10.01-10.02,23.76-15.38,37.92-14.79l-.82,20c-8.56-.4-16.89,2.84-22.93,8.93-11.97,11.95-11.99,31.35-.04,43.32,11.95,11.97,31.35,11.99,43.32,.04,5.56-5.55,8.77-13.02,8.98-20.87l20,.54c-.32,12.95-5.63,25.29-14.81,34.43Z"/></g></g><g class="di"><g><rect x="659.61" y="1073.06" width="91.92" height="20" transform="translate(-561.96 829.61) rotate(-45.61)"/><path d="M645.08,1018.34c-19.75,19.78-51.8,19.81-71.59,.06s-19.81-51.8-.06-71.59c10.02-10.03,23.78-15.41,37.95-14.81l-.82,20c-8.56-.4-16.9,2.85-22.93,8.94-11.96,11.96-11.96,31.35,0,43.3s31.35,11.96,43.3,0c5.54-5.54,8.75-12.99,8.96-20.82l20,.53c-.33,12.94-5.64,25.26-14.81,34.39Z"/></g></g><g class="dv"><g><rect x="473.42" y="118.26" width="91.92" height="20" transform="translate(64.4 409.68) rotate(-45.61)"/><path d="M458.89,63.53c-19.77,19.78-51.83,19.78-71.6,.01-19.78-19.77-19.78-51.83-.01-71.6,10.01-10.02,23.76-15.38,37.92-14.79l-.82,20c-8.56-.39-16.89,2.85-22.93,8.94-11.97,11.95-11.99,31.35-.04,43.32s31.35,11.99,43.32,.04c5.56-5.55,8.78-13.04,8.98-20.89l20,.53c-.32,12.96-5.62,25.3-14.81,34.45Z"/></g></g><g class="do"><g><rect x="473.42" y="309.21" width="91.92" height="20" transform="translate(-72.05 467.05) rotate(-45.61)"/><path d="M458.89,254.49c-19.76,19.78-51.82,19.8-71.6,.03-19.78-19.76-19.8-51.82-.03-71.6,10.02-10.03,23.78-15.39,37.93-14.8l-.82,20c-8.56-.42-16.89,2.81-22.93,8.88-11.97,11.95-11.99,31.35-.04,43.32,11.95,11.97,31.35,11.99,43.32,.04,5.56-5.55,8.77-13.02,8.98-20.87l20,.54c-.31,12.97-5.62,25.32-14.81,34.47Z"/></g></g><g class="du"><g><rect x="473.41" y="500.17" width="91.92" height="20" transform="translate(-208.52 524.43) rotate(-45.61)"/><path d="M458.89,445.45c-19.77,19.77-51.82,19.77-71.59,0-19.77-19.77-19.77-51.82,0-71.59,10.01-10.01,23.75-15.37,37.89-14.78l-.82,20c-8.56-.4-16.89,2.84-22.93,8.92-11.96,11.96-11.96,31.35,0,43.3,11.96,11.96,31.35,11.96,43.3,0,5.54-5.54,8.75-12.99,8.96-20.82l20,.53c-.32,12.96-5.62,25.29-14.81,34.44Z"/></g></g><g class="dt"><g><rect x="473.42" y="691.15" width="91.92" height="20" transform="translate(-344.98 581.81) rotate(-45.61)"/><path d="M458.89,636.42c-19.79,19.75-51.85,19.73-71.6-.06-19.75-19.79-19.73-51.85,.06-71.6,10-9.98,23.72-15.33,37.84-14.76l-.82,20c-8.57-.38-16.9,2.89-22.93,9-11.96,11.96-11.96,31.35,0,43.3,11.96,11.96,31.35,11.96,43.3,0,5.54-5.54,8.75-12.99,8.96-20.82l20,.53c-.33,12.95-5.63,25.27-14.81,34.41Z"/></g></g><g class="ds"><g><rect x="473.42" y="882.11" width="91.92" height="20" transform="translate(-481.44 639.19) rotate(-45.61)"/><path d="M458.89,827.38c-19.77,19.78-51.83,19.78-71.6,.01s-19.78-51.83-.01-71.6c10.01-10.02,23.76-15.38,37.92-14.79l-.82,20c-8.56-.4-16.89,2.84-22.93,8.93-11.97,11.95-11.99,31.35-.04,43.32,11.95,11.97,31.35,11.99,43.32,.04,5.56-5.55,8.78-13.03,8.98-20.88l20,.54c-.32,12.96-5.63,25.29-14.81,34.44Z"/></g></g><g class="dk"><g><rect x="473.41" y="1073.06" width="91.92" height="20" transform="translate(-617.9 696.56) rotate(-45.61)"/><path d="M458.89,1018.34c-19.75,19.78-51.8,19.81-71.59,.06s-19.81-51.8-.06-71.59c10.02-10.03,23.78-15.41,37.95-14.81l-.82,20c-8.56-.4-16.9,2.85-22.93,8.94-11.96,11.96-11.96,31.35,0,43.3,11.96,11.96,31.35,11.96,43.3,0,5.54-5.54,8.75-12.99,8.96-20.82l20,.53c-.33,12.94-5.64,25.26-14.81,34.39Z"/></g></g><g class="db"><g><rect x="287.23" y="118.26" width="91.92" height="20" transform="translate(8.46 276.63) rotate(-45.61)"/><path d="M272.7,63.53c-19.77,19.78-51.83,19.78-71.6,.01-19.78-19.77-19.78-51.83-.01-71.6,10.01-10.02,23.76-15.38,37.92-14.79l-.82,20c-8.56-.39-16.89,2.85-22.93,8.94-11.97,11.95-11.99,31.35-.04,43.32,11.95,11.97,31.35,11.99,43.32,.04,5.56-5.55,8.77-13.02,8.98-20.87l20,.53c-.33,12.95-5.63,25.29-14.81,34.43Z"/></g></g><g class="da"><g><rect x="287.23" y="309.21" width="91.92" height="20" transform="translate(-128 334.01) rotate(-45.61)"/><path d="M272.7,254.49c-19.76,19.78-51.82,19.8-71.6,.03-19.78-19.76-19.8-51.82-.03-71.6,10.02-10.03,23.78-15.39,37.93-14.8l-.82,20c-8.56-.42-16.89,2.81-22.93,8.88-11.97,11.95-11.99,31.35-.04,43.32,11.95,11.97,31.35,11.99,43.32,.04,5.56-5.55,8.77-13.02,8.98-20.87l20,.54c-.31,12.97-5.62,25.32-14.81,34.47Z"/></g></g><g class="dp"><g><rect x="287.23" y="500.17" width="91.92" height="20" transform="translate(-264.46 391.38) rotate(-45.61)"/><path d="M272.7,445.45c-19.77,19.77-51.82,19.77-71.59,0-19.77-19.77-19.77-51.82,0-71.59,10.01-10.01,23.75-15.37,37.89-14.78l-.82,20c-8.56-.4-16.89,2.84-22.93,8.92-11.96,11.96-11.96,31.35,0,43.3s31.35,11.96,43.3,0c5.54-5.54,8.75-12.99,8.96-20.82l20,.53c-.32,12.96-5.62,25.29-14.81,34.44Z"/></g></g><g class="dg"><g><rect x="287.22" y="691.15" width="91.92" height="20" transform="translate(-400.93 448.76) rotate(-45.61)"/><path d="M272.7,636.42c-19.79,19.75-51.85,19.73-71.6-.06-19.75-19.79-19.73-51.85,.06-71.6,10-9.98,23.72-15.33,37.84-14.76l-.82,20c-8.57-.38-16.9,2.89-22.93,9-11.96,11.96-11.96,31.35,0,43.3s31.35,11.96,43.3,0c5.54-5.54,8.75-12.99,8.96-20.82l20,.53c-.33,12.95-5.63,25.27-14.81,34.41Z"/></g></g><g class="dn"><g><rect x="287.22" y="882.11" width="91.92" height="20" transform="translate(-537.39 506.13) rotate(-45.61)"/><path d="M272.7,827.38c-19.77,19.78-51.83,19.78-71.6,.01-19.78-19.77-19.78-51.83-.01-71.6,10.01-10.02,23.76-15.38,37.92-14.79l-.82,20c-8.56-.4-16.89,2.84-22.93,8.93-11.97,11.95-11.99,31.35-.04,43.32,11.95,11.97,31.35,11.99,43.32,.04,5.56-5.55,8.77-13.02,8.98-20.87l20,.54c-.32,12.95-5.63,25.29-14.81,34.43Z"/></g></g><g class="dm"><g><rect x="287.22" y="1073.06" width="91.92" height="20" transform="translate(-673.84 563.51) rotate(-45.61)"/><path d="M272.7,1018.34c-19.75,19.78-51.8,19.81-71.59,.06s-19.81-51.8-.06-71.59c10.02-10.03,23.78-15.41,37.95-14.81l-.82,20c-8.56-.4-16.9,2.85-22.93,8.94-11.96,11.96-11.96,31.35,0,43.3s31.35,11.96,43.3,0c5.54-5.54,8.75-12.99,8.96-20.82l20,.53c-.33,12.94-5.64,25.26-14.81,34.39Z"/></g></g><g class="dl"><g><rect x="101.04" y="118.26" width="91.92" height="20" transform="translate(-47.48 143.58) rotate(-45.61)"/><path d="M86.51,63.53c-19.77,19.78-51.83,19.78-71.6,.01-19.78-19.77-19.78-51.83-.01-71.6,10.01-10.02,23.76-15.38,37.92-14.79l-.81,19.98C43.43-3.27,35.1-.02,29.06,6.07c-11.97,11.95-11.99,31.35-.04,43.32,11.95,11.97,31.35,11.99,43.32,.04,5.56-5.55,8.77-13.02,8.98-20.87l20,.53c-.32,12.96-5.62,25.3-14.81,34.45Z"/></g></g><g class="dc"><g><rect x="101.03" y="309.21" width="91.92" height="20" transform="translate(-183.94 200.95) rotate(-45.61)"/><path d="M86.51,254.49c-19.76,19.78-51.82,19.8-71.6,.03-19.78-19.76-19.8-51.82-.03-71.6,10.02-10.03,23.78-15.39,37.93-14.8l-.82,20c-8.56-.42-16.89,2.81-22.93,8.88-11.97,11.95-11.99,31.35-.04,43.32,11.95,11.97,31.35,11.99,43.32,.04,5.56-5.55,8.77-13.02,8.98-20.87l20,.54c-.31,12.97-5.62,25.32-14.81,34.47Z"/></g></g><g class="cx"><g><rect x="101.03" y="500.18" width="91.92" height="20" transform="translate(-320.4 258.33) rotate(-45.61)"/><path d="M86.51,445.45c-19.77,19.77-51.82,19.77-71.59,0-19.77-19.77-19.77-51.82,0-71.59,10.01-10.01,23.75-15.37,37.89-14.78l-.82,20c-8.56-.4-16.89,2.84-22.93,8.92-11.96,11.96-11.96,31.35,0,43.3,11.96,11.96,31.35,11.96,43.3,0,5.54-5.54,8.75-12.99,8.96-20.82l20,.53c-.32,12.96-5.62,25.29-14.81,34.44Z"/></g></g><g class="cw"><g><rect x="101.04" y="691.15" width="91.92" height="20" transform="translate(-456.87 315.71) rotate(-45.61)"/><path d="M86.51,636.42c-19.79,19.75-51.85,19.73-71.6-.06-19.75-19.79-19.73-51.85,.06-71.6,10-9.98,23.72-15.33,37.84-14.76l-.81,20c-8.58-.38-16.91,2.89-22.94,9-11.96,11.96-11.96,31.35,0,43.3s31.35,11.96,43.3,0c5.54-5.54,8.75-12.99,8.96-20.82l20,.53c-.33,12.95-5.63,25.27-14.81,34.41Z"/></g></g><g class="dh"><g><rect x="101.04" y="882.1" width="91.92" height="20" transform="translate(-593.32 373.08) rotate(-45.61)"/><path d="M86.51,827.38c-19.77,19.78-51.83,19.78-71.6,.01-19.78-19.77-19.78-51.83-.01-71.6,10.01-10.02,23.76-15.38,37.92-14.79l-.81,20c-8.56-.4-16.89,2.84-22.93,8.93-11.98,11.95-12,31.34-.06,43.32,11.95,11.98,31.34,12,43.32,.06,5.57-5.56,8.79-13.04,8.99-20.9l20,.54c-.32,12.96-5.63,25.29-14.81,34.44Z"/></g></g><g class="d`"><g><rect x="101.03" y="1073.06" width="91.92" height="20" transform="translate(-729.79 430.46) rotate(-45.61)"/><path d="M86.51,1018.34c-19.75,19.78-51.8,19.81-71.59,.06-19.78-19.75-19.81-51.8-.06-71.59,10.02-10.03,23.78-15.41,37.95-14.81l-.81,20c-8.56-.4-16.9,2.85-22.93,8.94-11.96,11.96-11.96,31.35,0,43.3,11.96,11.96,31.35,11.96,43.3,0,5.54-5.54,8.75-12.99,8.96-20.82l20,.53c-.33,12.94-5.64,25.26-14.82,34.39Z"/></g></g><g class="df"><rect x="-85.16" y="118.25" width="91.92" height="20" transform="translate(-103.42 10.52) rotate(-45.61)"/></g><g class="de"><rect x="-85.16" y="309.21" width="91.92" height="20" transform="translate(-239.88 67.9) rotate(-45.61)"/></g><g class="dd"><rect x="-85.16" y="500.18" width="91.92" height="20" transform="translate(-376.35 125.28) rotate(-45.61)"/></g><g class="cy"><rect x="-85.15" y="691.15" width="91.92" height="20" transform="translate(-512.81 182.66) rotate(-45.61)"/></g><g class="cv"><rect x="-85.15" y="882.1" width="91.92" height="20" transform="translate(-649.27 240.04) rotate(-45.61)"/></g><g class="dr"><rect x="-85.15" y="1073.06" width="91.92" height="20" transform="translate(-785.73 297.41) rotate(-45.61)"/></g></g></g></g></g></g></g></svg>