<svg xmlns="http://www.w3.org/2000/svg" version="1.1" xmlns:xlink="http://www.w3.org/1999/xlink" xmlns:svgjs="http://svgjs.com/svgjs" viewBox="0 0 140 140" width="140" height="140"><g transform="matrix(5.833333333333333,0,0,5.833333333333333,0,0)"><path d="M22,18H8a2,2,0,0,1-2-2V2A2,2,0,0,1,8,0H22a2,2,0,0,1,2,2V16A2,2,0,0,1,22,18ZM8,15.5a.5.5,0,0,0,.5.5l13,0a.5.5,0,0,0,.5-.5V2.5a.5.5,0,0,0-.5-.5H8.5a.5.5,0,0,0-.5.5Z" fill="#000000" stroke="none" stroke-linecap="round" stroke-linejoin="round" stroke-width="0"></path><path d="M3,24H2a2,2,0,0,1-2-2V21a1,1,0,0,1,2,0v.5a.5.5,0,0,0,.5.5H3a1,1,0,0,1,0,2Z" fill="#000000" stroke="none" stroke-linecap="round" stroke-linejoin="round" stroke-width="0"></path><path d="M1,17a1,1,0,0,1-1-1V14a1,1,0,0,1,2,0v2A1,1,0,0,1,1,17Z" fill="#000000" stroke="none" stroke-linecap="round" stroke-linejoin="round" stroke-width="0"></path><path d="M1,10A1,1,0,0,1,0,9V7A1,1,0,0,1,2,7V9A1,1,0,0,1,1,10Z" fill="#000000" stroke="none" stroke-linecap="round" stroke-linejoin="round" stroke-width="0"></path><path d="M10,24H8a1,1,0,0,1,0-2h2a1,1,0,0,1,0,2Z" fill="#000000" stroke="none" stroke-linecap="round" stroke-linejoin="round" stroke-width="0"></path><path d="M17,24H15a1,1,0,0,1,0-2h2a1,1,0,0,1,0,2Z" fill="#000000" stroke="none" stroke-linecap="round" stroke-linejoin="round" stroke-width="0"></path></g></svg>