<svg xmlns="http://www.w3.org/2000/svg" version="1.1" xmlns:xlink="http://www.w3.org/1999/xlink" xmlns:svgjs="http://svgjs.com/svgjs" viewBox="0 0 140 140" width="140" height="140"><g transform="matrix(5.833333333333333,0,0,5.833333333333333,0,0)"><path d="M17.7,17.838a1,1,0,0,0-.924-.617H13.75a.249.249,0,0,1-.25-.25V1.5a1.5,1.5,0,0,0-3,0V16.971a.25.25,0,0,1-.25.25H7.222a1,1,0,0,0-.707,1.707l4.777,4.778a1,1,0,0,0,1.415,0l4.778-4.778A1,1,0,0,0,17.7,17.838Z" fill="#000000" stroke="none" stroke-linecap="round" stroke-linejoin="round" stroke-width="0"></path></g></svg>