<svg xmlns="http://www.w3.org/2000/svg" version="1.1" xmlns:xlink="http://www.w3.org/1999/xlink" xmlns:svgjs="http://svgjs.com/svgjs" viewBox="0 0 140 140" width="140" height="140"><g transform="matrix(5.833333333333333,0,0,5.833333333333333,0,0)"><path d="M10.082,9.5A4.47,4.47,0,0,0,6.75,8H5.25a4.5,4.5,0,0,0,0,9h1.5a4.474,4.474,0,0,0,3.332-1.5" fill="none" stroke="#000000" stroke-linecap="round" stroke-linejoin="round" stroke-width="1.5"></path><path d="M13.918,9.5A4.469,4.469,0,0,1,17.25,8h1.5a4.5,4.5,0,1,1,0,9h-1.5a4.472,4.472,0,0,1-3.332-1.5" fill="none" stroke="#000000" stroke-linecap="round" stroke-linejoin="round" stroke-width="1.5"></path><path d="M6.75 12.499L17.25 12.499" fill="none" stroke="#000000" stroke-linecap="round" stroke-linejoin="round" stroke-width="1.5"></path></g></svg>