<svg xmlns="http://www.w3.org/2000/svg" version="1.1" xmlns:xlink="http://www.w3.org/1999/xlink" xmlns:svgjs="http://svgjs.com/svgjs" viewBox="0 0 140 140" width="140" height="140"><g transform="matrix(5.833333333333333,0,0,5.833333333333333,0,0)"><path d="M20.5 21L19 22.5" fill="none" stroke="#1b998b" stroke-linecap="round" stroke-linejoin="round"></path><path d="M19 21L20.5 22.5" fill="none" stroke="#1b998b" stroke-linecap="round" stroke-linejoin="round"></path><path d="M11 12.5L9.5 14" fill="none" stroke="#1b998b" stroke-linecap="round" stroke-linejoin="round"></path><path d="M9.5 12.5L11 14" fill="none" stroke="#1b998b" stroke-linecap="round" stroke-linejoin="round"></path><path d="M17.5 1.5L16 3" fill="none" stroke="#1b998b" stroke-linecap="round" stroke-linejoin="round"></path><path d="M16 1.5L17.5 3" fill="none" stroke="#1b998b" stroke-linecap="round" stroke-linejoin="round"></path><path d="M11.606,19.447a.5.5,0,0,1-.224.053H.5v-3H11.382a.5.5,0,0,1,.224.053L14.5,18Z" fill="none" stroke="#1b998b" stroke-linecap="round" stroke-linejoin="round"></path><path d="M14.5,18c.5,0,5.88.888,7.917-1.513a4.561,4.561,0,0,0-.527-6.428,3.648,3.648,0,0,0-5.143.422,2.918,2.918,0,0,0,.338,4.114,2.335,2.335,0,0,0,3.291-.27,1.868,1.868,0,0,0-.216-2.633,1.5,1.5,0,0,0-2.107.173" fill="none" stroke="#1b998b" stroke-linecap="round" stroke-linejoin="round"></path><path d="M2.5 19.5L3.5 16.5" fill="none" stroke="#1b998b" stroke-linecap="round" stroke-linejoin="round"></path><path d="M5.5 19.5L6.5 16.5" fill="none" stroke="#1b998b" stroke-linecap="round" stroke-linejoin="round"></path><path d="M8.5 19.5L9.5 16.5" fill="none" stroke="#1b998b" stroke-linecap="round" stroke-linejoin="round"></path><path d="M11.232 5.732 L13.232 5.732 L13.232 8.732 L11.232 8.732 Z" fill="none" stroke="#1b998b" stroke-linecap="round" stroke-linejoin="round" transform="translate(-1.531 10.768) rotate(-45)"></path><path d="M17.5,6.5l1.146-1.146a.5.5,0,0,1,.708,0l.792.792a.5.5,0,0,0,.708,0l.792-.792a.5.5,0,0,1,.708,0L23.5,6.5" fill="none" stroke="#1b998b" stroke-linecap="round" stroke-linejoin="round"></path><path d="M.5,4.5H3a.5.5,0,0,1,.5.5V7a.5.5,0,0,0,.5.5H6a.5.5,0,0,1,.5.5v2.5" fill="none" stroke="#1b998b" stroke-linecap="round" stroke-linejoin="round"></path></g></svg>