<svg xmlns="http://www.w3.org/2000/svg" version="1.1" xmlns:xlink="http://www.w3.org/1999/xlink" xmlns:svgjs="http://svgjs.com/svgjs" viewBox="0 0 140 140" width="140" height="140"><g transform="matrix(5.833333333333333,0,0,5.833333333333333,0,0)"><path d="M8.5,22A1.5,1.5,0,0,0,10,23.5h4A1.5,1.5,0,0,0,15.5,22V15.75a.25.25,0,0,1,.25-.25H22A1.5,1.5,0,0,0,23.5,14V10A1.5,1.5,0,0,0,22,8.5H15.75a.25.25,0,0,1-.25-.25V2A1.5,1.5,0,0,0,14,.5H10A1.5,1.5,0,0,0,8.5,2V8.25a.25.25,0,0,1-.25.25H2A1.5,1.5,0,0,0,.5,10v4A1.5,1.5,0,0,0,2,15.5H8.25a.25.25,0,0,1,.25.25Z" fill="#000000" stroke="none" stroke-linecap="round" stroke-linejoin="round" stroke-width="0"></path></g></svg>