<svg xmlns="http://www.w3.org/2000/svg" version="1.1" xmlns:xlink="http://www.w3.org/1999/xlink" xmlns:svgjs="http://svgjs.com/svgjs" viewBox="0 0 140 140" width="140" height="140"><g transform="matrix(5.833333333333333,0,0,5.833333333333333,0,0)"><path d="M12,23.67a1.25,1.25,0,0,0,1.25-1.25V18.907a.25.25,0,0,1,.25-.25h1.816a.5.5,0,0,0,.353-.853l-3.315-3.317a.517.517,0,0,0-.708,0L8.331,17.8a.5.5,0,0,0,.353.853H10.5a.25.25,0,0,1,.25.25V22.42A1.25,1.25,0,0,0,12,23.67Z" fill="#000000" stroke="none" stroke-linecap="round" stroke-linejoin="round" stroke-width="0"></path><path d="M12,.328a1.25,1.25,0,0,0-1.25,1.25V5.091a.25.25,0,0,1-.25.25H8.684a.5.5,0,0,0-.353.853l3.315,3.317a.5.5,0,0,0,.708,0l3.315-3.317a.5.5,0,0,0-.353-.853H13.5a.25.25,0,0,1-.25-.25V1.578A1.25,1.25,0,0,0,12,.328Z" fill="#000000" stroke="none" stroke-linecap="round" stroke-linejoin="round" stroke-width="0"></path><path d="M1.75,12A1.25,1.25,0,0,0,3,13.249H21a1.25,1.25,0,0,0,0-2.5H3A1.25,1.25,0,0,0,1.75,12Z" fill="#000000" stroke="none" stroke-linecap="round" stroke-linejoin="round" stroke-width="0"></path></g></svg>