<svg xmlns="http://www.w3.org/2000/svg" version="1.1" xmlns:xlink="http://www.w3.org/1999/xlink" xmlns:svgjs="http://svgjs.com/svgjs" viewBox="0 0 140 140" width="140" height="140"><g transform="matrix(5.833333333333333,0,0,5.833333333333333,0,0)"><path d="M12.457.705a1.25,1.25,0,0,0-1.25,1.25V12.118a.25.25,0,0,1-.25.25H8.8A1,1,0,0,0,8.1,14.075l3.653,3.652a1,1,0,0,0,1.414,0l3.652-3.652a1,1,0,0,0-.707-1.707H13.957a.249.249,0,0,1-.25-.25V1.955A1.25,1.25,0,0,0,12.457.705Z" fill="#000000" stroke="none" stroke-linecap="round" stroke-linejoin="round" stroke-width="0"></path><path d="M23.75,22.043a1.25,1.25,0,0,0-1.25-1.25H1.5a1.25,1.25,0,0,0,0,2.5h21A1.25,1.25,0,0,0,23.75,22.043Z" fill="#000000" stroke="none" stroke-linecap="round" stroke-linejoin="round" stroke-width="0"></path></g></svg>