<svg xmlns="http://www.w3.org/2000/svg" version="1.1" xmlns:xlink="http://www.w3.org/1999/xlink" xmlns:svgjs="http://svgjs.com/svgjs" viewBox="0 0 140 140" width="140" height="140"><g transform="matrix(5.833333333333333,0,0,5.833333333333333,0,0)"><path d="M22.5.248H14.863a1.25,1.25,0,0,0,0,2.5h1.086a.25.25,0,0,1,.211.384L4.78,21.017a.5.5,0,0,1-.422.231H1.5a1.25,1.25,0,0,0,0,2.5H9.137a1.25,1.25,0,0,0,0-2.5H8.051a.25.25,0,0,1-.211-.384L19.22,2.98a.5.5,0,0,1,.422-.232H22.5a1.25,1.25,0,0,0,0-2.5Z" fill="#000000" stroke="none" stroke-linecap="round" stroke-linejoin="round" stroke-width="0"></path></g></svg>