<svg xmlns="http://www.w3.org/2000/svg" version="1.1" xmlns:xlink="http://www.w3.org/1999/xlink" xmlns:svgjs="http://svgjs.com/svgjs" viewBox="0 0 140 140" width="140" height="140"><g transform="matrix(5.833333333333333,0,0,5.833333333333333,0,0)"><path d="M22.664,5.578a1.5,1.5,0,0,0,0-2.121L20.543,1.336a1.5,1.5,0,0,0-2.122,0L12.177,7.581a.251.251,0,0,1-.354,0L5.579,1.336a1.5,1.5,0,0,0-2.122,0L1.336,3.457a1.5,1.5,0,0,0,0,2.121l6.245,6.245a.252.252,0,0,1,0,.354L1.336,18.422a1.5,1.5,0,0,0,0,2.121l2.121,2.121a1.5,1.5,0,0,0,2.122,0l6.244-6.245a.251.251,0,0,1,.354,0l6.244,6.245a1.5,1.5,0,0,0,2.122,0l2.121-2.121a1.5,1.5,0,0,0,0-2.121l-6.245-6.245a.252.252,0,0,1,0-.354Z" fill="#000000" stroke="none" stroke-linecap="round" stroke-linejoin="round" stroke-width="0"></path></g></svg>