<svg xmlns="http://www.w3.org/2000/svg" version="1.1" xmlns:xlink="http://www.w3.org/1999/xlink" xmlns:svgjs="http://svgjs.com/svgjs" viewBox="0 0 140 140" width="140" height="140"><g transform="matrix(5.833333333333333,0,0,5.833333333333333,0,0)"><path d="M12.455,23.249A1.25,1.25,0,0,0,13.705,22V11.886a.25.25,0,0,1,.25-.25h2.136A1,1,0,0,0,16.8,9.929L13.162,6.292a1.029,1.029,0,0,0-1.414,0L8.111,9.929a1,1,0,0,0,.707,1.707h2.137a.25.25,0,0,1,.25.25V22A1.25,1.25,0,0,0,12.455,23.249Z" fill="#000000" stroke="none" stroke-linecap="round" stroke-linejoin="round" stroke-width="0"></path><path d="M23.705,2a1.25,1.25,0,0,0-1.25-1.25H1.545a1.25,1.25,0,0,0,0,2.5h20.91A1.25,1.25,0,0,0,23.705,2Z" fill="#000000" stroke="none" stroke-linecap="round" stroke-linejoin="round" stroke-width="0"></path></g></svg>