<svg xmlns="http://www.w3.org/2000/svg" width="399.774" height="24.806" viewBox="0 0 980.559 60.844">
  <defs>
    <style>
      .cls-1 {
        fill-rule: evenodd;
      }
    </style>
  </defs>
  <path id="CULINARY_CANVAS" data-name="CULINARY CANVAS" class="cls-1" d="M251.739,414.694a20.2,20.2,0,0,1-16.01,7.746c-11.791,0-20.829-9.64-20.829-21.6s9.038-21.69,20.829-21.69a21.036,21.036,0,0,1,15.838,7.4l7.057-5.509a29.006,29.006,0,0,0-22.9-10.673c-16.783,0-29.952,13.6-29.952,30.47a30.014,30.014,0,0,0,29.952,30.383A28.674,28.674,0,0,0,258.8,420.289Zm55.254,7.746a12.419,12.419,0,0,1-12.738-12.652V371.056h-9.3v38.732c0,13,10.156,21.432,22.034,21.432,11.792,0,21.948-8.435,21.948-21.432V371.056h-9.209v38.732A12.42,12.42,0,0,1,306.993,422.44Zm54.049,7.919h32.879V422.01H370.166V371.056h-9.124v59.3Zm60.161,0h9.124v-59.3H421.2v59.3Zm84.951-59.3H497.03v42.089l-25.218-42.089h-8.78v59.3h9.124V387.926l25.477,42.433h8.521v-59.3Zm70.49,59.3h9.64l-22.379-59.3h-9.9l-22.378,59.3h9.726l5.68-14.8h23.928ZM559,382.5l8.865,24.875h-17.73Zm75.567-3.012c6.37,0,8.952,5.422,8.952,10.415,0,5.078-2.669,10.328-9.3,10.328H620.967V379.491h13.6Zm3.1,28.748c10.931-1.2,15.32-9.64,15.32-18.333,0-9.468-5.336-18.85-18.074-18.85H611.757v59.3h9.21V408.583h6.369l14.8,21.776h11.1Zm67.563,22.12V403.247l22.809-32.191H717.106L700.58,394.639l-16.353-23.583H673.3l22.55,32.105v27.2h9.382Zm125.488-15.665a20.2,20.2,0,0,1-16.01,7.746c-11.791,0-20.829-9.64-20.829-21.6s9.038-21.69,20.829-21.69a21.036,21.036,0,0,1,15.838,7.4l7.057-5.509a29.006,29.006,0,0,0-22.895-10.673c-16.783,0-29.952,13.6-29.952,30.47a30.014,30.014,0,0,0,29.952,30.383,28.678,28.678,0,0,0,23.068-10.931Zm71.608,15.665h9.64l-22.379-59.3h-9.9l-22.379,59.3h9.726l5.681-14.8h23.928ZM884.679,382.5l8.865,24.875h-17.73Zm95.88-11.447h-9.124v42.089l-25.218-42.089h-8.78v59.3h9.124V387.926l25.477,42.433h8.521v-59.3Zm27.111,0,17.99,59.3h8.52l17.9-59.3h-9.47l-12.73,44.068-12.66-44.068h-9.55Zm106.3,59.3h9.64l-22.38-59.3h-9.9l-22.38,59.3h9.73l5.68-14.8h23.92ZM1096.32,382.5l8.87,24.875h-17.73Zm48.8,30.642c0,9.64,8.61,18.075,20.92,18.075,11.36,0,19.36-6.628,20.22-15.923,0.95-8.521-4.04-15.235-16.01-18.42l-7.57-1.979c-7.06-1.808-7.92-5.423-7.92-7.747,0-4.906,4.82-8.176,10.24-8.176,6.11,0,10.33,3.528,10.33,8.951h9.12c0-10.845-8.34-17.559-19.28-17.559-10.41,0-19.53,6.8-19.53,16.956,0,5.251,1.98,12.481,14.71,15.924l7.49,1.893c5.51,1.291,9.73,4.132,9.38,9.64-0.6,4.3-4.21,8.091-11.18,8.091-7.06,0-11.62-4.906-11.8-9.726h-9.12Z" transform="translate(-205.781 -370.375)"/>
</svg>
