<svg xmlns="http://www.w3.org/2000/svg" version="1.1" xmlns:xlink="http://www.w3.org/1999/xlink" xmlns:svgjs="http://svgjs.com/svgjs" viewBox="0 0 140 140" width="140" height="140"><g transform="matrix(5.833333333333333,0,0,5.833333333333333,0,0)"><path d="M9.25,5h-7a2,2,0,0,0-2,2V8.5a1,1,0,0,0,2,0V7.248A.25.25,0,0,1,2.5,7h2a.25.25,0,0,1,.25.25v9.5A.25.25,0,0,1,4.5,17H3.75a1,1,0,0,0,0,2h4a1,1,0,0,0,0-2H7a.25.25,0,0,1-.25-.25v-9.5A.25.25,0,0,1,7,7H9a.25.25,0,0,1,.25.25V8.5a1,1,0,0,0,2,0V7A2,2,0,0,0,9.25,5Z" fill="#000000" stroke="none" stroke-linecap="round" stroke-linejoin="round" stroke-width="0"></path><path d="M21.75,5h-7a2,2,0,0,0-2,2V8.5a1,1,0,0,0,2,0V7.248A.25.25,0,0,1,15,7h2a.25.25,0,0,1,.25.25v9.5A.25.25,0,0,1,17,17h-.75a1,1,0,0,0,0,2h4a1,1,0,0,0,0-2H19.5a.25.25,0,0,1-.25-.25v-9.5A.25.25,0,0,1,19.5,7h2a.25.25,0,0,1,.25.25V8.5a1,1,0,0,0,2,0V7A2,2,0,0,0,21.75,5Z" fill="#000000" stroke="none" stroke-linecap="round" stroke-linejoin="round" stroke-width="0"></path></g></svg>